PathFileType	4	(X/Y/Z)	C:\Users\WrightLab\Desktop\Jo\P3_6.trc
DataRate	CameraRate	NumFrames	NumMarkers	Units	OrigDataRate	OrigDataStartFrame	OrigNumFrames
100.00	100.00	       19	19	mm	100.00	332	       530
Frame#	Time	Headset_Front			Headset_Back			Headset_Left			Headset_Right			Left_Shoulder			Right_Shoulder			Sternum			C7			Left Elbow			Right Elbow			Left Wrist			Right Wrist			Left ASIS			Right ASIS			S2			Left Knee			Right Knee			Left Ankle			Right Ankle			
		X1	Y1	Z1	X2	Y2	Z2	X3	Y3	Z3	X4	Y4	Z4	X5	Y5	Z5	X6	Y6	Z6	X7	Y7	Z7	X8	Y8	Z8	X9	Y9	Z9	X10	Y10	Z10	X11	Y11	Z11	X12	Y12	Z12	X13	Y13	Z13	X14	Y14	Z14	X15	Y15	Z15	X16	Y16	Z16	X17	Y17	Z17	X18	Y18	Z18	X19	Y19	Z19	

332	3.310	-612.68097	1403.16150	-295.69351	-749.95313	1612.98706	-120.18261	-784.92389	1518.92749	-252.34138	-578.40155	1477.60889	-167.12189	-931.74463	1329.09070	-87.15517	-587.73663	1328.24805	-58.67405	-754.73602	1212.17615	-210.40378	-755.73462	1377.12585	-29.49990	-1026.36340	1005.81970	-52.32465	-409.62228	1030.71228	-66.10547	-1047.57507	817.13196	-140.97809	-258.49133	947.59039	-222.09370	-866.05115	854.36426	-197.66438	-615.85419	845.12836	-211.69397	-725.04309	923.37201	8.53506	-886.22150	437.30875	-195.08905	-631.55731	399.81720	-144.19217	-884.23926	104.46376	-164.95892	-590.73834	180.17575	114.16012	
333	3.320	-615.04095	1402.48315	-300.72604	-752.42975	1613.20044	-129.33134	-786.31586	1518.48560	-261.39505	-579.41107	1478.58093	-174.42302	-934.66351	1329.58752	-97.24265	-591.32520	1329.14307	-65.72007	-756.63672	1213.27502	-219.70718	-758.84857	1377.46326	-38.67325	-1029.35278	1005.87964	-63.50401	-414.63959	1029.95996	-67.97886	-1051.13159	818.11749	-153.81595	-261.04285	945.71039	-222.00127	-868.20575	854.11993	-205.46269	-618.07300	844.95728	-218.64906	-729.32794	922.58313	0.11492	-888.39496	436.45578	-198.16853	-634.38330	399.82648	-163.16438	-884.88184	104.03056	-165.30856	-593.98499	187.67964	101.83380	
334	3.330	-614.52216	1402.60559	-310.98425	-754.70331	1613.78979	-138.30214	-787.55798	1518.84924	-270.70313	-582.78351	1477.69019	-181.33936	-937.21790	1330.13855	-106.96832	-594.07043	1329.20972	-72.87643	-758.67480	1214.06934	-227.97107	-761.67389	1377.45410	-46.43602	-1032.82568	1007.20349	-75.09956	-419.32745	1028.96863	-70.96798	-1055.16382	820.99713	-168.11211	-264.29895	943.47827	-222.97670	-871.23053	854.93689	-214.46608	-619.34021	844.27679	-224.76366	-733.45306	922.42700	-6.71702	-890.06812	435.83566	-201.52777	-637.24652	400.28787	-180.08215	-885.27173	103.75462	-165.90630	-597.86542	194.62996	87.34628	
335	3.340	-617.03741	1402.39612	-315.31723	-756.95447	1613.72888	-147.39598	-788.93970	1519.07397	-279.70618	-583.95056	1478.28674	-189.43880	-939.75446	1330.81543	-116.89973	-597.09448	1329.46472	-79.13389	-760.49554	1214.20215	-236.42366	-765.55640	1378.53235	-55.48193	-1036.68909	1008.01270	-86.44981	-424.44711	1027.49780	-74.11913	-1057.21240	820.89233	-180.36031	-267.52020	940.73877	-223.24973	-872.90234	854.94360	-223.52005	-621.34723	844.88654	-233.03604	-736.39850	923.08398	-16.09480	-891.88580	435.25009	-205.54031	-639.92963	401.78235	-198.90898	-885.74829	103.66769	-166.35512	-602.43890	201.14320	71.45839	
336	3.350	-615.80505	1404.03674	-325.74841	-758.22589	1614.27454	-156.90115	-789.86041	1518.75574	-289.11679	-584.87988	1478.82556	-196.94939	-942.27948	1330.96790	-126.43203	-599.72913	1329.96021	-86.55504	-761.62952	1214.64294	-245.18094	-768.46246	1378.83154	-64.13473	-1039.88159	1008.50153	-98.11242	-428.65591	1026.72803	-77.82177	-1060.24573	822.63226	-194.31999	-270.23267	937.94885	-223.92543	-874.89764	854.19427	-231.73877	-624.06653	846.62195	-242.03131	-739.45709	923.08423	-22.83175	-892.05365	434.08969	-208.19878	-642.03198	403.87326	-216.67360	-886.20325	103.34021	-166.48038	-605.74799	207.87523	56.01263	
337	3.360	-613.43604	1401.12329	-334.04922	-760.07581	1613.86194	-165.74886	-791.08319	1518.96252	-298.07504	-587.83948	1478.19287	-204.64703	-944.51886	1331.37744	-136.99171	-602.22552	1330.13245	-93.58539	-762.85028	1214.26282	-252.78690	-770.75220	1379.52563	-72.53925	-1042.73914	1008.03217	-109.86278	-432.62595	1025.51233	-80.43588	-1063.42383	824.38336	-207.69630	-274.27307	935.36517	-224.25874	-875.59735	852.81122	-239.68959	-625.11316	846.75757	-247.47978	-742.98248	923.20129	-31.63162	-894.20294	434.61069	-212.60895	-644.37366	406.91644	-233.86826	-886.04773	103.22211	-167.30563	-610.84589	214.23218	40.06395	
338	3.370				-762.05475	1614.82349	-176.22395	-791.72699	1518.73767	-307.63211	-589.41199	1478.23718	-212.24530	-946.60022	1331.29028	-147.38751	-604.48309	1330.05078	-100.49753	-764.27020	1214.98279	-261.82315	-772.97626	1379.50818	-80.94314	-1045.53613	1008.41504	-121.41232	-437.04013	1024.78406	-83.72861	-1065.57190	825.65747	-220.92673	-277.67975	932.10791	-225.62718	-876.88232	852.05634	-247.82384	-625.43353	847.29364	-253.91522	-745.91406	923.84570	-38.14389	-895.29602	434.10413	-215.83989	-646.07532	410.68408	-252.52811	-885.86841	103.10226	-168.23407	-615.64832	220.44176	25.48592	
339	3.380	-614.95624	1401.00598	-349.25769	-763.42004	1614.80127	-184.78767	-792.63013	1518.86816	-316.99915	-589.29657	1478.55286	-220.00412	-948.23114	1331.66699	-157.57024	-606.49030	1330.24304	-107.58192	-765.32111	1214.76648	-270.05197	-775.62683	1380.55652	-89.64960	-1048.22705	1009.50098	-133.43616	-441.27704	1023.69666	-87.04237	-1067.89185	826.97925	-234.80302	-281.80588	929.20789	-226.46385	-878.19427	852.36304	-255.74684	-625.92145	847.80853	-261.73593	-749.34796	923.70154	-45.58326	-896.21411	433.49579	-219.50443	-648.01392	413.04892	-269.93344	-885.79810	103.82761	-170.34442	-620.09821	225.26884	10.33749	
340	3.390				-765.27850	1615.26172	-194.43390	-793.27374	1518.51550	-326.33072	-592.23175	1478.45813	-227.72171	-950.40881	1332.26550	-167.16525	-608.55182	1330.78992	-114.81631	-766.33423	1214.39221	-278.37607	-778.19550	1381.07202	-98.60494	-1050.72388	1009.15411	-146.05229	-445.84647	1023.17462	-90.89749	-1069.70239	828.40729	-248.23404	-285.51822	925.79602	-227.70540	-879.19519	851.42596	-264.15717	-626.42792	848.45673	-269.13547	-752.50543	923.53522	-52.26269	-896.82770	432.87628	-223.46793	-648.93420	416.39499	-287.58960	-885.64319	103.60640	-170.92848	-625.48468	228.77271	-6.64570	
341	3.400				-766.55072	1615.59204	-203.81203	-794.00061	1518.81592	-335.49222	-592.85883	1477.93860	-234.61720	-952.38983	1332.32312	-177.14874	-610.31854	1330.73950	-123.05185	-766.58856	1214.05078	-286.18982	-780.33331	1381.90515	-107.52026	-1054.10400	1010.36859	-158.11644	-449.70074	1022.72034	-94.66084	-1071.63269	829.44153	-261.75790	-290.16391	922.33539	-229.33592	-879.76276	850.63055	-271.75378	-627.33813	849.81763	-275.35303	-755.23645	925.21954	-59.54362	-896.77588	432.17072	-227.52995	-651.20941	418.26248	-303.99261	-884.66980	103.32336	-172.37775	-630.49304	230.14104	-24.01677	
342	3.410				-767.21619	1616.14648	-213.78255	-793.96246	1517.98779	-344.51694	-594.10706	1477.52563	-242.87546	-953.97870	1332.76208	-187.77382	-613.15186	1330.88953	-130.59415	-767.94147	1213.96338	-294.57190	-782.75214	1381.67712	-115.49944	-1056.56177	1010.96307	-170.42227	-454.22726	1021.84741	-98.40036	-1073.32373	830.69513	-275.13699	-293.99069	918.98718	-230.45920	-880.24823	850.33051	-280.56519	-627.06458	850.50085	-280.84613	-758.33899	924.87982	-67.18311	-896.90558	431.82010	-231.03230	-652.86810	421.67700	-320.30261	-884.37213	103.59506	-173.76912	-634.15167	230.91431	-43.34053	
343	3.420				-768.59314	1615.81750	-222.24107	-794.25983	1517.56763	-353.28711	-595.46899	1477.82263	-250.57419	-955.61218	1333.17310	-196.82866	-615.36304	1331.15991	-137.07249	-768.59161	1214.15735	-303.29916	-785.55670	1382.85461	-125.25590	-1058.53503	1011.34882	-182.33595	-460.04272	1021.33600	-103.68741	-1074.93518	832.59406	-288.04584	-298.20151	914.92206	-231.62872	-882.03735	851.02490	-287.99622	-628.24493	850.93384	-287.63181	-759.98792	926.17371	-74.78489	-897.26703	431.16064	-234.65926	-654.06049	425.82153	-337.57343	-884.15802	103.48447	-174.40927	-638.42255	230.29340	-62.66864	
344	3.430				-769.55023	1615.66443	-230.91249	-794.49860	1517.39722	-362.38171	-597.68372	1477.27710	-257.23343	-956.98511	1333.69592	-207.81549	-616.43774	1330.85266	-145.16559	-769.76331	1214.21484	-311.85678	-787.28156	1382.30212	-132.58948	-1060.44849	1012.03552	-194.38843	-463.61697	1020.41724	-107.07368	-1075.69006	833.24323	-301.76703	-302.96414	911.07379	-233.28358	-882.60449	850.47095	-296.63025	-629.87360	851.05676	-293.65198	-763.00177	926.60657	-83.08358	-897.20984	431.08142	-238.56398	-654.36700	429.70325	-354.04443	-883.78607	103.65643	-175.83141	-641.96631	228.58060	-81.45781	
345	3.440				-770.57001	1616.14941	-241.08398	-794.42358	1516.96863	-371.75674	-598.09558	1477.68152	-265.29102	-958.31549	1333.65161	-217.06964	-618.84277	1331.67651	-152.45201	-770.17902	1214.06165	-319.60318	-790.02338	1383.42773	-140.47623	-1061.67932	1011.21698	-206.24727	-467.73999	1019.91705	-112.02211	-1076.73425	834.43604	-315.12613	-307.15637	907.06421	-234.71513	-883.23120	850.57892	-304.72687				-765.33893	927.04156	-90.00208	-897.55078	430.45908	-242.02777	-655.10620	433.06265	-370.35345	-883.39899	103.95214	-177.34740	-645.43683	225.32823	-101.39116	
346	3.450	-620.29871	1396.79248	-399.63330	-771.13806	1615.84155	-249.73956	-794.52466	1517.43054	-380.20047	-597.30981	1477.50220	-272.41852	-960.02875	1333.98364	-227.09413	-620.90723	1330.91602	-160.03783	-770.95111	1213.68323	-328.11853	-791.41870	1382.68225	-148.90564	-1064.14758	1012.55371	-217.97795	-471.66742	1018.83270	-116.75220	-1076.97131	835.20776	-328.01129	-311.72693	903.04492	-236.51678	-883.77008	849.99384	-312.36053				-768.10376	927.78082	-96.94772	-897.82556	429.87540	-245.67003	-654.65649	436.94250	-385.85107	-883.23376	103.86713	-177.99060	-648.86987	222.31915	-122.19453	
347	3.460	-621.18237	1395.43274	-405.34476	-772.14148	1616.05347	-258.71094	-794.25586	1516.41040	-389.09726	-599.04810	1476.67847	-280.34183	-961.25714	1334.00110	-237.13156	-621.76349	1332.09827	-166.79019	-771.53320	1213.35840	-335.72363	-794.15649	1382.50183	-158.51639	-1065.13757	1012.66534	-229.56544	-476.15213	1018.57471	-121.20993	-1077.42676	835.58673	-340.78116	-316.92099	898.95740	-238.64195	-884.34790	849.10968	-319.81021				-770.26294	927.68970	-105.19069	-897.61829	429.78857	-249.40714	-655.04950	439.82535	-400.52817	-883.13641	103.69466	-178.53224	-651.32379	217.60023	-142.89432	
348	3.470				-772.91797	1615.85168	-268.15656	-794.31073	1515.92261	-398.48526	-599.90887	1475.42505	-286.32474	-962.26385	1334.51782	-246.98529	-626.00006	1331.03662	-173.98390	-772.40674	1213.24939	-344.33420	-794.11548	1383.78015	-167.85756	-1066.62988	1012.73425	-241.24748	-480.70563	1016.99890	-125.65961	-1077.82837	836.77606	-353.89584	-322.03384	894.73358	-240.40086	-885.21362	849.18866	-328.46008				-772.91339	927.72198	-112.53267	-896.67346	427.16583	-250.73434	-653.60510	443.27686	-414.85355	-883.16138	103.92508	-179.57748	-653.07361	212.18958	-164.70575	
349	3.480				-773.09119	1615.22351	-276.13980	-793.92407	1515.95544	-407.09305	-600.78979	1476.46912	-294.72150	-963.20551	1334.32275	-256.16098	-626.51166	1330.85889	-181.82047	-772.67010	1213.19592	-352.36694	-795.73529	1382.59021	-177.22871	-1067.88916	1012.44586	-252.09741	-485.05765	1016.25299	-130.33926	-1077.62671	836.99402	-366.29385	-327.47675	890.49915	-242.63196	-885.94531	848.67340	-336.43930				-774.87994	927.99756	-120.99860	-896.49084	427.06647	-254.61752	-653.08478	446.52164	-427.52057	-882.69232	104.47324	-181.49666	-654.43701	206.75661	-186.00002	
350	3.490				-773.93848	1615.55969	-285.40918	-793.67377	1515.30139	-416.10464	-602.18268	1475.79968	-301.56216	-964.24927	1334.06042	-266.21036	-627.29456	1330.36743	-189.15176	-773.02252	1212.99670	-361.03662	-797.12329	1383.05273	-185.98860	-1068.29907	1012.06812	-264.69150	-490.07516	1015.29346	-135.15414	-1077.92542	838.17731	-379.66183	-332.86935	886.13208	-245.25917	-885.85461	847.48566	-344.34717	-634.12781	858.04297	-335.98102	-776.99969	928.00055	-128.17381	-896.35046	426.90182	-258.18579	-651.42230	449.73138	-440.68802	-882.60724	104.35156	-181.82066	-655.74152	199.58951	-208.21039	
